#N canvas 0 0 943 1005 10;
#X declare -lib neimog;
#X declare -lib timbreIDLib;
#X declare -path build -path resources -path Flute/jet-whistle -path Flute/attack-percurssivo;
#X declare -path /home/neimog/Downloads/contorchionist/build/dist/puredata;
#X declare -path Flute;
#X declare -path resources;
#X obj 9 87 readsf~;
#X msg 9 52 open jet1-2.aif \, 1;
#X obj 122 3 declare -lib neimog;
#X obj 29 112 dac~;
#X msg 81 335 dump tensors_inputs;
#X msg 88 357 dump tensors_outputs;
#X msg 99 386 dump compatibility;
#N canvas 0 0 943 1005 /*patcherized*/ 0;
#X obj 11 43 declare -lib timbreIDLib;
#X obj 225 61 declare -path build -path resources -path Flute/jet-whistle -path Flute/attack-percurssivo, f 21;
#X obj 8 7 declare -path /home/neimog/Downloads/contorchionist/build/dist/puredata;
#X obj 5 84 declare -path Flute;
#X restore 6 3 pd /*patcherized*/;
#X msg 131 52 open Ob-key-cl-C#4-pp.aif \, 1;
#X obj 298 9 declare -path resources;
#X msg 238 380 set time_inference \$1;
#X obj 238 358 tgl 18 0 empty empty empty 0 -9 0 10 #fcfcfc #000000 #000000 0 1;
#X listbox 9 441 20 0 0 0 - - - 0;
#X obj 166 122 bang~;
#X obj 166 144 int;
#X obj 166 166 + 1;
#X obj 166 188 % 16;
#X obj 100 95 sel 0;
#X obj 9 419 onnx model.onnx label probabilities;
#X obj 9 306 list prepend features;
#X msg 9 214 \$2 \$3 \$4 \$5 \$6 \$7 \$8 \$9 \$10 \$11 \$12 \$13 \$14 \$15 \$16 \$17 \$18 \$19 \$20;
#X obj 9 138 mfcc~ 2048 180;
#X text 231 76 Change windowing function. Rectangular (0) \, Blackman (1) \, Cosine (2) \, Hamming (3) \, or Hann (4). (default: Blackman);
#X msg 92 245 0.217108 -0.725244 -0.491752 0.283354 0.497911 0.041176 -0.357519 -0.234177 0.163444 0.280876 0.013326 -0.236523 -0.11199 0.144984 0.161907 -0.0648197 -0.15113 0.00616863 0.109725;
#X listbox 216 443 29 0 0 0 - - - 0;
#X connect 0 0 3 0;
#X connect 0 0 3 1;
#X connect 0 0 21 0;
#X connect 1 0 0 0;
#X connect 4 0 18 0;
#X connect 5 0 18 0;
#X connect 6 0 18 0;
#X connect 8 0 0 0;
#X connect 10 0 18 0;
#X connect 11 0 10 0;
#X connect 13 0 14 0;
#X connect 14 0 15 0;
#X connect 15 0 14 1;
#X connect 15 0 16 0;
#X connect 16 0 17 0;
#X connect 17 0 21 0;
#X connect 18 0 12 0;
#X connect 18 1 24 0;
#X connect 19 0 18 0;
#X connect 20 0 19 0;
#X connect 21 0 20 0;
#X connect 23 0 19 0;
