#N canvas 0 0 943 1005 10;
#X declare -lib timbreIDLib;
#X declare -lib neimog;
#X declare -lib py4pd;
#X declare -path build;
#X obj 7 170 py.train, f 28;
#N canvas 0 0 943 1005 config 0;
#X obj 5 128 declare -lib timbreIDLib;
#X obj 5 29 declare -lib neimog;
#X obj 6 106 declare -lib py4pd;
#X text 128 107 <= Must be last version;
#X text 157 127 <= Must be last version;
#X obj 9 251 py.pip;
#X msg 9 166 pip install skl2onnx;
#X msg 52 190 pip install catboost;
#X text 125 5 <= Just for my (Charles) use;
#X text 126 29 <= Just for my (Charles) use (don't need to install it);
#X obj 4 5 declare -path build;
#X connect 6 0 5 0;
#X connect 7 0 5 0;
#X restore 6 3 pd config;
#N canvas 0 50 450 250 (subpatch) 0;
#X array train 304753 float 4;
#A color 0;
#A width 1;
#X coords 0 1 304752 -1 237 83 1;
#X restore 217 17 graph;
#X msg 7 49 trainfolder Flute;
#X msg 197 226 analyze \$1 2048;
#X obj 197 249 mfcc train 190;
#X obj 197 299 list trim;
#X obj 197 277 list prepend traindata;
#X obj 197 202 unpack f s, f 22;
#X obj 299 366 tabplay~ train;
#X obj 299 412 dac~;
#X obj 299 340 bng 18 250 50 0 empty empty empty 0 -9 0 10 #fcfcfc #000000 #000000;
#X msg 28 96 train;
#X msg 37 120 export model.onnx;
#X msg 21 72 analyze;
#X msg 59 149 reload;
#X obj 105 204 bang~;
#X obj 105 226 int;
#X obj 105 248 + 1;
#X obj 105 270 % 16;
#X obj 105 292 sel 0;
#X obj 5 255 receive~ t;
#X obj 5 405 onnx model.onnx probabilities label;
#X listbox 212 443 20 0 0 0 - - - 0;
#X listbox 5 445 20 0 0 0 - - - 0;
#X msg 164 359 dump tensors_inputs;
#X obj 5 344 list prepend features;
#X obj 5 323 mfcc~ 2048 190;
#X obj 335 412 send~ t;
#X connect 0 1 8 0;
#X connect 3 0 0 0;
#X connect 4 0 5 0;
#X connect 5 0 7 0;
#X connect 6 0 0 1;
#X connect 7 0 6 0;
#X connect 8 0 4 0;
#X connect 8 1 7 1;
#X connect 9 0 10 0;
#X connect 9 0 10 1;
#X connect 9 0 28 0;
#X connect 11 0 9 0;
#X connect 12 0 0 0;
#X connect 13 0 0 0;
#X connect 14 0 0 0;
#X connect 15 0 0 0;
#X connect 16 0 17 0;
#X connect 17 0 18 0;
#X connect 18 0 19 0;
#X connect 19 0 17 1;
#X connect 19 0 20 0;
#X connect 20 0 27 0;
#X connect 21 0 27 0;
#X connect 22 0 24 0;
#X connect 22 1 23 0;
#X connect 25 0 22 0;
#X connect 26 0 22 0;
#X connect 27 0 26 0;
